# xmcd
#
# Track frame offsets:
#	150
#	14700
#	28920
#	40452
#	55168
#	71176
#	86272
#	101905
#	118181
#	130817
#	143583
#	160119
#	174925
#
# Disc length: 2534 seconds
#
# Revision: 0
# Processed by: cddbd v1.5.2PL0 Copyright (c) Steve Scherf et al.
# Submitted via: audiograbber 1.83.01
#
DISCID=b509e40d
DTITLE=Edith Piaf - Adieu mon coeur - CD 8: Il y avait
DYEAR=2008
DGENRE=Chanson
TTITLE0=Il y avait
TTITLE1=Entre Saint Quen et Clignancourt
TTITLE2=Dans les prisons de Nantes
TTITLE3=Céline
TTITLE4=Browning
TTITLE5=De l'autre côté de la rue
TTITLE6=Fais-moi valser
TTITLE7=La fille et le chien
TTITLE8=Chant d'habits
TTITLE9=C'est la moindre des choses
TTITLE10=C'est un monsieur très distingué
TTITLE11=Je n'en connais pas la fin
TTITLE12=Pour moi toute seule
EXTD=10 CD Box
EXTT0=
EXTT1=
EXTT2=
EXTT3=
EXTT4=
EXTT5=
EXTT6=
EXTT7=
EXTT8=
EXTT9=
EXTT10=
EXTT11=
EXTT12=
PLAYORDER=
